<svg xmlns="http://www.w3.org/2000/svg" viewBox="0 0 800 600" preserveAspectRatio="xMidYMid slice">
<defs><linearGradient id="g" x1="0" y1="0" x2="1" y2="1"><stop offset="0" stop-color="#0b2238"/><stop offset="1" stop-color="#07182a"/></linearGradient>
<radialGradient id="r" cx="50%" cy="15%" r="60%"><stop offset="0" stop-color="#f0c97a" stop-opacity=".5"/><stop offset="1" stop-color="#f0c97a" stop-opacity="0"/></radialGradient>
<linearGradient id="gold" x1="0" y1="0" x2="1" y2="1"><stop offset="0" stop-color="#c9973f"/><stop offset="1" stop-color="#f6dca0"/></linearGradient>
<linearGradient id="fade" x1="0" y1="0" x2="0" y2="1"><stop offset="0" stop-color="#f0c97a" stop-opacity=".45"/><stop offset="1" stop-color="#f0c97a" stop-opacity="0"/></linearGradient></defs>
<rect width="800" height="600" fill="url(#g)"/><rect width="800" height="600" fill="url(#r)"/>
<g stroke="#fff" stroke-opacity=".06"><path d="M0 0V600"/><path d="M50 0V600"/><path d="M100 0V600"/><path d="M150 0V600"/><path d="M200 0V600"/><path d="M250 0V600"/><path d="M300 0V600"/><path d="M350 0V600"/><path d="M400 0V600"/><path d="M450 0V600"/><path d="M500 0V600"/><path d="M550 0V600"/><path d="M600 0V600"/><path d="M650 0V600"/><path d="M700 0V600"/><path d="M750 0V600"/><path d="M800 0V600"/><path d="M0 0H800"/><path d="M0 50H800"/><path d="M0 100H800"/><path d="M0 150H800"/><path d="M0 200H800"/><path d="M0 250H800"/><path d="M0 300H800"/><path d="M0 350H800"/><path d="M0 400H800"/><path d="M0 450H800"/><path d="M0 500H800"/><path d="M0 550H800"/><path d="M0 600H800"/></g>
<g transform="translate(400 430)"><polygon points="0,-60 190,-10 0,40 -190,-10" fill="#0e2a45" stroke="#f0c97a" stroke-opacity=".45"/></g><g transform="translate(400 378)"><polygon points="0,-60 190,-10 0,40 -190,-10" fill="#143a5c" stroke="#f0c97a" stroke-opacity=".45"/></g><g transform="translate(400 326)"><polygon points="0,-60 190,-10 0,40 -190,-10" fill="#1b4a73" stroke="#f0c97a" stroke-opacity=".45"/></g><g transform="translate(400 274)"><polygon points="0,-60 190,-10 0,40 -190,-10" fill="#c9973f" stroke="#f0c97a" stroke-opacity=".45"/></g><g transform="translate(400 222)"><polygon points="0,-60 190,-10 0,40 -190,-10" fill="#e3b968" stroke="#f0c97a" stroke-opacity=".45"/></g><g transform="translate(400 170)"><polygon points="0,-60 190,-10 0,40 -190,-10" fill="#f6dca0" stroke="#f0c97a" stroke-opacity=".45"/></g></svg>