<svg xmlns="http://www.w3.org/2000/svg" viewBox="0 0 800 600" preserveAspectRatio="xMidYMid slice">
<defs><linearGradient id="g" x1="0" y1="0" x2="1" y2="1"><stop offset="0" stop-color="#0b2238"/><stop offset="1" stop-color="#07182a"/></linearGradient>
<radialGradient id="r" cx="50%" cy="55%" r="60%"><stop offset="0" stop-color="#f0c97a" stop-opacity=".5"/><stop offset="1" stop-color="#f0c97a" stop-opacity="0"/></radialGradient>
<linearGradient id="gold" x1="0" y1="0" x2="1" y2="1"><stop offset="0" stop-color="#c9973f"/><stop offset="1" stop-color="#f6dca0"/></linearGradient>
<linearGradient id="fade" x1="0" y1="0" x2="0" y2="1"><stop offset="0" stop-color="#f0c97a" stop-opacity=".45"/><stop offset="1" stop-color="#f0c97a" stop-opacity="0"/></linearGradient></defs>
<rect width="800" height="600" fill="url(#g)"/><rect width="800" height="600" fill="url(#r)"/>
<g stroke="#fff" stroke-opacity=".06"><path d="M0 0V600"/><path d="M50 0V600"/><path d="M100 0V600"/><path d="M150 0V600"/><path d="M200 0V600"/><path d="M250 0V600"/><path d="M300 0V600"/><path d="M350 0V600"/><path d="M400 0V600"/><path d="M450 0V600"/><path d="M500 0V600"/><path d="M550 0V600"/><path d="M600 0V600"/><path d="M650 0V600"/><path d="M700 0V600"/><path d="M750 0V600"/><path d="M800 0V600"/><path d="M0 0H800"/><path d="M0 50H800"/><path d="M0 100H800"/><path d="M0 150H800"/><path d="M0 200H800"/><path d="M0 250H800"/><path d="M0 300H800"/><path d="M0 350H800"/><path d="M0 400H800"/><path d="M0 450H800"/><path d="M0 500H800"/><path d="M0 550H800"/><path d="M0 600H800"/></g>
<circle cx="400" cy="330" r="150" fill="url(#gold)"/><circle cx="400" cy="330" r="230" fill="#f0c97a" fill-opacity=".12"/><rect y="330" width="800" height="270" fill="#07182a"/><path d="M200 345H600" stroke="#f0c97a" stroke-opacity="0.5" stroke-width="3"/><path d="M220 367H580" stroke="#f0c97a" stroke-opacity="0.44" stroke-width="3"/><path d="M240 389H560" stroke="#f0c97a" stroke-opacity="0.38" stroke-width="3"/><path d="M260 411H540" stroke="#f0c97a" stroke-opacity="0.32" stroke-width="3"/><path d="M280 433H520" stroke="#f0c97a" stroke-opacity="0.26" stroke-width="3"/><path d="M300 455H500" stroke="#f0c97a" stroke-opacity="0.2" stroke-width="3"/><path d="M320 477H480" stroke="#f0c97a" stroke-opacity="0.14" stroke-width="3"/><path d="M340 499H460" stroke="#f0c97a" stroke-opacity="0.08000000000000002" stroke-width="3"/></svg>